    <svg
      version="1.0"
      xmlns="http://www.w3.org/2000/svg"
  width="4280.000000pt" height="2042.000000pt" viewBox="0 0 1280.000000 1042.000000"
      preserveAspectRatio="xMidYMid meet"
    >
      <metadata>
        Created by potrace 1.15, written by Peter Selinger 2001-2017
      </metadata>
      <g
        transform="translate(0.000000,1042.000000) scale(0.100000,-0.100000)"
        fill="#000000"
        stroke="none"
      >
        <path
          v-if="username[0] == 'A'"
          d="M884 10401 c-23 -11 -43 -24 -46 -31 -2 -6 -10 -12 -18 -13 -24 -4
-88 -46 -109 -73 -10 -13 -22 -24 -26 -24 -10 0 -105 -82 -105 -91 0 -5 -24
-33 -52 -63 -29 -30 -60 -62 -68 -73 -63 -78 -82 -105 -84 -119 -2 -9 -9 -22
-18 -28 -20 -15 -68 -99 -68 -119 0 -9 -6 -20 -14 -24 -18 -11 -68 -111 -61
-123 3 -5 0 -12 -6 -15 -14 -9 -50 -92 -54 -128 -2 -16 -8 -34 -13 -40 -13
-16 -43 -118 -37 -127 3 -4 -2 -21 -11 -38 -8 -17 -17 -55 -20 -84 -3 -29 -10
-64 -15 -78 -15 -40 -22 -170 -22 -390 1 -248 7 -339 26 -376 8 -16 12 -34 10
-41 -7 -18 38 -103 61 -115 11 -6 26 -17 33 -24 9 -9 70 -12 233 -12 182 -1
223 2 235 14 8 9 15 20 15 26 0 13 -50 101 -62 109 -5 3 -10 14 -12 25 -5 24
-47 117 -55 124 -4 3 -13 37 -20 75 -8 39 -17 75 -22 81 -5 6 -4 39 3 75 6 35
11 71 12 80 1 9 24 40 52 68 27 29 51 57 52 62 2 5 9 9 17 9 7 0 34 9 61 21
27 11 58 24 69 29 31 13 151 31 238 35 43 3 82 7 87 10 4 2 45 -3 91 -12 66
-13 89 -23 111 -45 47 -48 56 -82 45 -178 -5 -47 -13 -94 -17 -105 -20 -48
-38 -114 -33 -119 4 -3 -1 -14 -9 -23 -18 -22 -58 -116 -58 -137 0 -8 -4 -16
-9 -18 -13 -5 -61 -104 -61 -126 0 -10 -4 -22 -10 -28 -6 -6 -5 -17 5 -32 15
-21 20 -21 249 -20 128 0 239 4 246 8 28 18 72 115 74 165 1 22 5 46 10 53 24
39 26 741 2 781 -4 6 -9 40 -11 77 -3 36 -8 71 -13 78 -5 6 -12 37 -15 68 -3
31 -13 73 -23 93 -9 19 -14 38 -11 41 7 7 -30 115 -43 128 -6 6 -10 19 -10 31
0 24 -37 107 -51 116 -6 3 -12 18 -13 32 -4 30 -53 117 -66 117 -6 0 -10 7
-10 17 0 23 -58 111 -82 124 -10 5 -16 14 -13 19 8 13 -166 191 -202 206 -18
8 -33 19 -33 24 0 16 -91 70 -116 70 -13 0 -26 5 -29 10 -9 15 -35 12 -81 -9z
m116 -482 c14 -11 33 -22 42 -25 10 -4 20 -16 24 -27 4 -12 25 -47 48 -77 22
-30 41 -59 41 -65 1 -15 45 -109 54 -115 4 -3 15 -45 24 -93 15 -80 15 -90 1
-112 -19 -28 -54 -38 -154 -41 -119 -3 -223 -13 -250 -23 -14 -5 -55 -13 -92
-16 -37 -4 -70 -11 -73 -16 -10 -15 -101 -11 -114 5 -20 24 -6 115 28 184 17
35 29 67 26 72 -3 5 -1 11 5 15 13 8 80 112 80 124 0 4 16 26 37 47 20 21 44
51 53 66 9 15 45 50 81 77 69 53 91 57 139 20z"
        />
         </g>
    </svg>